<?xml version="1.0" standalone="no"?>
<!DOCTYPE svg PUBLIC "-//W3C//DTD SVG 20010904//EN"
 "http://www.w3.org/TR/2001/REC-SVG-20010904/DTD/svg10.dtd">
<svg version="1.0" xmlns="http://www.w3.org/2000/svg"
 width="302.000000pt" height="302.000000pt" viewBox="0 0 302.000000 302.000000"
 preserveAspectRatio="xMidYMid meet">
<metadata>
Created by potrace 1.14, written by Peter Selinger 2001-2017
</metadata>
<g transform="translate(0.000000,302.000000) scale(0.100000,-0.100000)"
fill="#000000" stroke="none">
<path d="M993 3004 c-45 -15 -89 -65 -103 -114 -5 -19 -10 -79 -10 -132 l0
-98 40 0 c45 0 43 -5 41 128 -1 68 20 119 54 132 39 15 950 13 978 -2 24 -12
48 -34 47 -43 0 -3 0 -53 0 -111 l0 -105 42 3 42 3 -1 106 c-1 115 -15 163
-56 199 -14 12 -28 21 -32 20 -4 -1 -11 4 -16 12 -12 19 -970 21 -1026 2z"/>
<path d="M740 2553 c-45 -16 -90 -58 -109 -103 -21 -49 -21 -55 -21 -1058 l0
-1010 23 -43 c13 -24 42 -57 65 -73 l42 -30 747 -1 c470 0 761 3 782 10 50 14
107 72 120 122 16 60 16 1993 0 2057 -25 99 -89 136 -239 136 l-100 0 0 -369
0 -370 -32 -3 c-28 -2 -33 -7 -33 -28 0 -20 7 -27 33 -35 l32 -9 0 -228 0
-228 -50 0 c-43 0 -50 3 -50 20 0 24 -46 75 -77 84 -38 12 -92 -19 -111 -63
-12 -29 -24 -40 -42 -43 -63 -9 -60 -19 -60 233 0 145 4 229 10 230 6 1 15 3
20 4 6 1 15 3 21 4 6 0 9 13 7 29 -2 21 -9 28 -30 30 l-28 3 -2 367 -3 367
-150 3 -150 2 0 -540 1 -540 -32 0 c-23 0 -33 -5 -37 -20 -6 -23 8 -37 43 -42
l25 -3 1 -225 c0 -247 2 -239 -62 -232 -22 3 -34 10 -34 19 0 52 -70 101 -124
87 -31 -7 -76 -58 -76 -85 0 -10 -7 -19 -15 -20 -8 0 -30 -1 -47 -2 l-33 -1
-2 232 -1 231 31 3 c27 2 32 7 32 28 0 20 -6 26 -30 30 l-30 5 -2 530 c-1 292
-2 533 -2 538 -1 8 -198 8 -221 0z"/>
<path d="M1057 162 l-85 -3 8 -27 c15 -53 31 -77 65 -100 88 -57 204 -7 229
100 l6 26 -69 4 c-38 2 -108 2 -154 0z"/>
<path d="M1763 123 c47 -155 264 -150 292 5 l5 32 -154 0 -154 0 11 -37z"/>
</g>
</svg>
